<svg width="82" height="21" viewBox="0 0 82 21" fill="none" xmlns="http://www.w3.org/2000/svg">
<rect x="0.5" width="81" height="21" rx="10.5" fill="#F1E9C9"/>
<path d="M12.3135 6.89062V14H10.8535V6.89062H12.3135ZM14.501 6.89062V8.03809H8.7002V6.89062H14.501ZM15.3359 6.89062H17.9873C18.5309 6.89062 18.998 6.97201 19.3887 7.13477C19.7826 7.29753 20.0853 7.53841 20.2969 7.85742C20.5085 8.17643 20.6143 8.56868 20.6143 9.03418C20.6143 9.41504 20.5492 9.74219 20.4189 10.0156C20.292 10.2858 20.1113 10.512 19.877 10.6943C19.6458 10.8734 19.374 11.0166 19.0615 11.124L18.5977 11.3682H16.293L16.2832 10.2256H17.9971C18.2542 10.2256 18.4674 10.18 18.6367 10.0889C18.806 9.99772 18.9329 9.87077 19.0176 9.70801C19.1055 9.54525 19.1494 9.35645 19.1494 9.1416C19.1494 8.91374 19.1071 8.7168 19.0225 8.55078C18.9378 8.38477 18.8092 8.25781 18.6367 8.16992C18.4642 8.08203 18.2477 8.03809 17.9873 8.03809H16.8008V14H15.3359V6.89062ZM19.3105 14L17.6895 10.8311L19.2373 10.8213L20.8779 13.9316V14H19.3105ZM24.6328 8.10645L22.6992 14H21.1416L23.7832 6.89062H24.7744L24.6328 8.10645ZM26.2393 14L24.3008 8.10645L24.1445 6.89062H25.1455L27.8018 14H26.2393ZM26.1514 11.3535V12.501H22.3965V11.3535H26.1514ZM30.6436 14H29.0957L29.1055 12.8574H30.6436C31.0277 12.8574 31.3516 12.7712 31.6152 12.5986C31.8789 12.4229 32.0775 12.1673 32.2109 11.832C32.3477 11.4967 32.416 11.0915 32.416 10.6162V10.2695C32.416 9.90495 32.377 9.58431 32.2988 9.30762C32.224 9.03092 32.1117 8.79818 31.9619 8.60938C31.8122 8.42057 31.6283 8.27897 31.4102 8.18457C31.1921 8.08691 30.9414 8.03809 30.6582 8.03809H29.0664V6.89062H30.6582C31.1335 6.89062 31.568 6.97201 31.9619 7.13477C32.359 7.29427 32.7025 7.52376 32.9922 7.82324C33.2819 8.12272 33.5049 8.48079 33.6611 8.89746C33.8206 9.31087 33.9004 9.77148 33.9004 10.2793V10.6162C33.9004 11.1208 33.8206 11.5814 33.6611 11.998C33.5049 12.4147 33.2819 12.7728 32.9922 13.0723C32.7057 13.3685 32.3623 13.598 31.9619 13.7607C31.5648 13.9202 31.1253 14 30.6436 14ZM29.9258 6.89062V14H28.4609V6.89062H29.9258ZM36.5225 6.89062V14H35.0625V6.89062H36.5225ZM42.0156 11.6416H43.4756C43.4463 12.1201 43.3145 12.5449 43.0801 12.916C42.849 13.2871 42.5251 13.5768 42.1084 13.7852C41.695 13.9935 41.1969 14.0977 40.6143 14.0977C40.1585 14.0977 39.75 14.0195 39.3887 13.8633C39.0273 13.7038 38.7181 13.4759 38.4609 13.1797C38.207 12.8835 38.0133 12.5254 37.8799 12.1055C37.7464 11.6855 37.6797 11.2152 37.6797 10.6943V10.2012C37.6797 9.68034 37.748 9.20996 37.8848 8.79004C38.0247 8.36686 38.2233 8.00716 38.4805 7.71094C38.7409 7.41471 39.0518 7.18685 39.4131 7.02734C39.7744 6.86784 40.1781 6.78809 40.624 6.78809C41.2165 6.78809 41.7161 6.89551 42.123 7.11035C42.5332 7.3252 42.8506 7.62142 43.0752 7.99902C43.3031 8.37663 43.4398 8.80632 43.4854 9.28809H42.0205C42.0042 9.00163 41.9473 8.75911 41.8496 8.56055C41.752 8.35872 41.6038 8.20736 41.4053 8.10645C41.21 8.00228 40.9495 7.9502 40.624 7.9502C40.3799 7.9502 40.1667 7.99577 39.9844 8.08691C39.8021 8.17806 39.6491 8.31641 39.5254 8.50195C39.4017 8.6875 39.3089 8.92188 39.2471 9.20508C39.1885 9.48503 39.1592 9.8138 39.1592 10.1914V10.6943C39.1592 11.0622 39.1868 11.3861 39.2422 11.666C39.2975 11.9427 39.3822 12.1771 39.4961 12.3691C39.6133 12.5579 39.763 12.7012 39.9453 12.7988C40.1309 12.8932 40.3538 12.9404 40.6143 12.9404C40.9202 12.9404 41.1725 12.8916 41.3711 12.7939C41.5697 12.6963 41.721 12.5514 41.8252 12.3594C41.9326 12.1673 41.9961 11.9281 42.0156 11.6416ZM45.9951 6.89062V14H44.5352V6.89062H45.9951ZM53.207 10.2793V10.6162C53.207 11.1566 53.1338 11.6416 52.9873 12.0713C52.8408 12.501 52.6341 12.8672 52.3672 13.1699C52.1003 13.4694 51.7812 13.6989 51.4102 13.8584C51.0423 14.0179 50.6338 14.0977 50.1846 14.0977C49.7386 14.0977 49.3301 14.0179 48.959 13.8584C48.5911 13.6989 48.2721 13.4694 48.002 13.1699C47.7318 12.8672 47.5218 12.501 47.3721 12.0713C47.2256 11.6416 47.1523 11.1566 47.1523 10.6162V10.2793C47.1523 9.73568 47.2256 9.25065 47.3721 8.82422C47.5186 8.39453 47.7253 8.02832 47.9922 7.72559C48.2624 7.42285 48.5814 7.19173 48.9492 7.03223C49.3203 6.87272 49.7288 6.79297 50.1748 6.79297C50.624 6.79297 51.0326 6.87272 51.4004 7.03223C51.7715 7.19173 52.0905 7.42285 52.3574 7.72559C52.6276 8.02832 52.8359 8.39453 52.9824 8.82422C53.1322 9.25065 53.207 9.73568 53.207 10.2793ZM51.7275 10.6162V10.2695C51.7275 9.89193 51.6934 9.5599 51.625 9.27344C51.5566 8.98698 51.4557 8.74609 51.3223 8.55078C51.1888 8.35547 51.026 8.20898 50.834 8.11133C50.6419 8.01042 50.4222 7.95996 50.1748 7.95996C49.9274 7.95996 49.7077 8.01042 49.5156 8.11133C49.3268 8.20898 49.1657 8.35547 49.0322 8.55078C48.902 8.74609 48.8027 8.98698 48.7344 9.27344C48.666 9.5599 48.6318 9.89193 48.6318 10.2695V10.6162C48.6318 10.9906 48.666 11.3226 48.7344 11.6123C48.8027 11.8988 48.9036 12.1413 49.0371 12.3398C49.1706 12.5352 49.3333 12.6833 49.5254 12.7842C49.7174 12.8851 49.9372 12.9355 50.1846 12.9355C50.432 12.9355 50.6517 12.8851 50.8438 12.7842C51.0358 12.6833 51.1969 12.5352 51.3271 12.3398C51.4574 12.1413 51.5566 11.8988 51.625 11.6123C51.6934 11.3226 51.7275 10.9906 51.7275 10.6162ZM60.0479 6.89062V14H58.583L55.7266 9.23438V14H54.2617V6.89062H55.7266L58.5879 11.6611V6.89062H60.0479ZM64.3008 8.10645L62.3672 14H60.8096L63.4512 6.89062H64.4424L64.3008 8.10645ZM65.9072 14L63.9688 8.10645L63.8125 6.89062H64.8135L67.4697 14H65.9072ZM65.8193 11.3535V12.501H62.0645V11.3535H65.8193ZM72.6992 12.8574V14H69.1201V12.8574H72.6992ZM69.5938 6.89062V14H68.1289V6.89062H69.5938Z" fill="#C47F17"/>
</svg>
