<svg width="67" height="21" viewBox="0 0 67 21" fill="none" xmlns="http://www.w3.org/2000/svg">
<rect width="67" height="21" rx="10.5" fill="#F1E9C9"/>
<path d="M12.7559 11.6416H14.2158C14.1865 12.1201 14.0547 12.5449 13.8203 12.916C13.5892 13.2871 13.2653 13.5768 12.8486 13.7852C12.4352 13.9935 11.9372 14.0977 11.3545 14.0977C10.8988 14.0977 10.4902 14.0195 10.1289 13.8633C9.76758 13.7038 9.45833 13.4759 9.20117 13.1797C8.94727 12.8835 8.75358 12.5254 8.62012 12.1055C8.48665 11.6855 8.41992 11.2152 8.41992 10.6943V10.2012C8.41992 9.68034 8.48828 9.20996 8.625 8.79004C8.76497 8.36686 8.96354 8.00716 9.2207 7.71094C9.48112 7.41471 9.79199 7.18685 10.1533 7.02734C10.5146 6.86784 10.9183 6.78809 11.3643 6.78809C11.9567 6.78809 12.4564 6.89551 12.8633 7.11035C13.2734 7.3252 13.5908 7.62142 13.8154 7.99902C14.0433 8.37663 14.18 8.80632 14.2256 9.28809H12.7607C12.7445 9.00163 12.6875 8.75911 12.5898 8.56055C12.4922 8.35872 12.3441 8.20736 12.1455 8.10645C11.9502 8.00228 11.6898 7.9502 11.3643 7.9502C11.1201 7.9502 10.9069 7.99577 10.7246 8.08691C10.5423 8.17806 10.3893 8.31641 10.2656 8.50195C10.1419 8.6875 10.0492 8.92188 9.9873 9.20508C9.92871 9.48503 9.89941 9.8138 9.89941 10.1914V10.6943C9.89941 11.0622 9.92708 11.3861 9.98242 11.666C10.0378 11.9427 10.1224 12.1771 10.2363 12.3691C10.3535 12.5579 10.5033 12.7012 10.6855 12.7988C10.8711 12.8932 11.0941 12.9404 11.3545 12.9404C11.6605 12.9404 11.9128 12.8916 12.1113 12.7939C12.3099 12.6963 12.4613 12.5514 12.5654 12.3594C12.6729 12.1673 12.7363 11.9281 12.7559 11.6416ZM21.0176 10.2793V10.6162C21.0176 11.1566 20.9443 11.6416 20.7979 12.0713C20.6514 12.501 20.4447 12.8672 20.1777 13.1699C19.9108 13.4694 19.5918 13.6989 19.2207 13.8584C18.8529 14.0179 18.4443 14.0977 17.9951 14.0977C17.5492 14.0977 17.1406 14.0179 16.7695 13.8584C16.4017 13.6989 16.0827 13.4694 15.8125 13.1699C15.5423 12.8672 15.3324 12.501 15.1826 12.0713C15.0361 11.6416 14.9629 11.1566 14.9629 10.6162V10.2793C14.9629 9.73568 15.0361 9.25065 15.1826 8.82422C15.3291 8.39453 15.5358 8.02832 15.8027 7.72559C16.0729 7.42285 16.3919 7.19173 16.7598 7.03223C17.1309 6.87272 17.5394 6.79297 17.9854 6.79297C18.4346 6.79297 18.8431 6.87272 19.2109 7.03223C19.582 7.19173 19.901 7.42285 20.168 7.72559C20.4382 8.02832 20.6465 8.39453 20.793 8.82422C20.9427 9.25065 21.0176 9.73568 21.0176 10.2793ZM19.5381 10.6162V10.2695C19.5381 9.89193 19.5039 9.5599 19.4355 9.27344C19.3672 8.98698 19.2663 8.74609 19.1328 8.55078C18.9993 8.35547 18.8366 8.20898 18.6445 8.11133C18.4525 8.01042 18.2327 7.95996 17.9854 7.95996C17.738 7.95996 17.5182 8.01042 17.3262 8.11133C17.1374 8.20898 16.9762 8.35547 16.8428 8.55078C16.7126 8.74609 16.6133 8.98698 16.5449 9.27344C16.4766 9.5599 16.4424 9.89193 16.4424 10.2695V10.6162C16.4424 10.9906 16.4766 11.3226 16.5449 11.6123C16.6133 11.8988 16.7142 12.1413 16.8477 12.3398C16.9811 12.5352 17.1439 12.6833 17.3359 12.7842C17.528 12.8851 17.7477 12.9355 17.9951 12.9355C18.2425 12.9355 18.4622 12.8851 18.6543 12.7842C18.8464 12.6833 19.0075 12.5352 19.1377 12.3398C19.2679 12.1413 19.3672 11.8988 19.4355 11.6123C19.5039 11.3226 19.5381 10.9906 19.5381 10.6162ZM22.7412 6.89062H23.9814L25.8076 12.1104L27.6338 6.89062H28.874L26.3057 14H25.3096L22.7412 6.89062ZM22.0723 6.89062H23.3076L23.5322 11.9785V14H22.0723V6.89062ZM28.3076 6.89062H29.5479V14H28.083V11.9785L28.3076 6.89062ZM37.8926 12.8574V14H34.3135V12.8574H37.8926ZM34.7871 6.89062V14H33.3223V6.89062H34.7871ZM43.5029 12.8574V14H39.7188V12.8574H43.5029ZM40.1973 6.89062V14H38.7324V6.89062H40.1973ZM43.0098 9.78613V10.8994H39.7188V9.78613H43.0098ZM43.498 6.89062V8.03809H39.7188V6.89062H43.498ZM45.915 6.89062V14H44.4551V6.89062H45.915ZM50.3193 6.89062V14H48.8594V6.89062H50.3193ZM52.5068 6.89062V8.03809H46.7061V6.89062H52.5068ZM58.1123 12.8574V14H54.3281V12.8574H58.1123ZM54.8066 6.89062V14H53.3418V6.89062H54.8066ZM57.6191 9.78613V10.8994H54.3281V9.78613H57.6191ZM58.1074 6.89062V8.03809H54.3281V6.89062H58.1074Z" fill="#C47F17"/>
</svg>
