<svg width="71" height="21" viewBox="0 0 71 21" fill="none" xmlns="http://www.w3.org/2000/svg">
<rect x="0.5" width="70" height="21" rx="10.5" fill="#F1E9C9"/>
<path d="M12.0254 8.10645L10.0918 14H8.53418L11.1758 6.89062H12.167L12.0254 8.10645ZM13.6318 14L11.6934 8.10645L11.5371 6.89062H12.5381L15.1943 14H13.6318ZM13.5439 11.3535V12.501H9.78906V11.3535H13.5439ZM20.4238 12.8574V14H16.8447V12.8574H20.4238ZM17.3184 6.89062V14H15.8535V6.89062H17.3184ZM25.0625 11.6416H26.5225C26.4932 12.1201 26.3613 12.5449 26.127 12.916C25.8958 13.2871 25.5719 13.5768 25.1553 13.7852C24.7419 13.9935 24.2438 14.0977 23.6611 14.0977C23.2054 14.0977 22.7969 14.0195 22.4355 13.8633C22.0742 13.7038 21.765 13.4759 21.5078 13.1797C21.2539 12.8835 21.0602 12.5254 20.9268 12.1055C20.7933 11.6855 20.7266 11.2152 20.7266 10.6943V10.2012C20.7266 9.68034 20.7949 9.20996 20.9316 8.79004C21.0716 8.36686 21.2702 8.00716 21.5273 7.71094C21.7878 7.41471 22.0986 7.18685 22.46 7.02734C22.8213 6.86784 23.2249 6.78809 23.6709 6.78809C24.2633 6.78809 24.763 6.89551 25.1699 7.11035C25.5801 7.3252 25.8975 7.62142 26.1221 7.99902C26.3499 8.37663 26.4867 8.80632 26.5322 9.28809H25.0674C25.0511 9.00163 24.9941 8.75911 24.8965 8.56055C24.7988 8.35872 24.6507 8.20736 24.4521 8.10645C24.2568 8.00228 23.9964 7.9502 23.6709 7.9502C23.4268 7.9502 23.2135 7.99577 23.0312 8.08691C22.849 8.17806 22.696 8.31641 22.5723 8.50195C22.4486 8.6875 22.3558 8.92188 22.2939 9.20508C22.2354 9.48503 22.2061 9.8138 22.2061 10.1914V10.6943C22.2061 11.0622 22.2337 11.3861 22.2891 11.666C22.3444 11.9427 22.429 12.1771 22.543 12.3691C22.6602 12.5579 22.8099 12.7012 22.9922 12.7988C23.1777 12.8932 23.4007 12.9404 23.6611 12.9404C23.9671 12.9404 24.2194 12.8916 24.418 12.7939C24.6165 12.6963 24.7679 12.5514 24.8721 12.3594C24.9795 12.1673 25.043 11.9281 25.0625 11.6416ZM33.3242 10.2793V10.6162C33.3242 11.1566 33.251 11.6416 33.1045 12.0713C32.958 12.501 32.7513 12.8672 32.4844 13.1699C32.2174 13.4694 31.8984 13.6989 31.5273 13.8584C31.1595 14.0179 30.751 14.0977 30.3018 14.0977C29.8558 14.0977 29.4473 14.0179 29.0762 13.8584C28.7083 13.6989 28.3893 13.4694 28.1191 13.1699C27.849 12.8672 27.639 12.501 27.4893 12.0713C27.3428 11.6416 27.2695 11.1566 27.2695 10.6162V10.2793C27.2695 9.73568 27.3428 9.25065 27.4893 8.82422C27.6357 8.39453 27.8424 8.02832 28.1094 7.72559C28.3796 7.42285 28.6986 7.19173 29.0664 7.03223C29.4375 6.87272 29.846 6.79297 30.292 6.79297C30.7412 6.79297 31.1497 6.87272 31.5176 7.03223C31.8887 7.19173 32.2077 7.42285 32.4746 7.72559C32.7448 8.02832 32.9531 8.39453 33.0996 8.82422C33.2493 9.25065 33.3242 9.73568 33.3242 10.2793ZM31.8447 10.6162V10.2695C31.8447 9.89193 31.8105 9.5599 31.7422 9.27344C31.6738 8.98698 31.5729 8.74609 31.4395 8.55078C31.306 8.35547 31.1432 8.20898 30.9512 8.11133C30.7591 8.01042 30.5394 7.95996 30.292 7.95996C30.0446 7.95996 29.8249 8.01042 29.6328 8.11133C29.444 8.20898 29.2829 8.35547 29.1494 8.55078C29.0192 8.74609 28.9199 8.98698 28.8516 9.27344C28.7832 9.5599 28.749 9.89193 28.749 10.2695V10.6162C28.749 10.9906 28.7832 11.3226 28.8516 11.6123C28.9199 11.8988 29.0208 12.1413 29.1543 12.3398C29.2878 12.5352 29.4505 12.6833 29.6426 12.7842C29.8346 12.8851 30.0544 12.9355 30.3018 12.9355C30.5492 12.9355 30.7689 12.8851 30.9609 12.7842C31.153 12.6833 31.3141 12.5352 31.4443 12.3398C31.5745 12.1413 31.6738 11.8988 31.7422 11.6123C31.8105 11.3226 31.8447 10.9906 31.8447 10.6162ZM40.2188 10.2793V10.6162C40.2188 11.1566 40.1455 11.6416 39.999 12.0713C39.8525 12.501 39.6458 12.8672 39.3789 13.1699C39.112 13.4694 38.793 13.6989 38.4219 13.8584C38.054 14.0179 37.6455 14.0977 37.1963 14.0977C36.7503 14.0977 36.3418 14.0179 35.9707 13.8584C35.6029 13.6989 35.2839 13.4694 35.0137 13.1699C34.7435 12.8672 34.5335 12.501 34.3838 12.0713C34.2373 11.6416 34.1641 11.1566 34.1641 10.6162V10.2793C34.1641 9.73568 34.2373 9.25065 34.3838 8.82422C34.5303 8.39453 34.737 8.02832 35.0039 7.72559C35.2741 7.42285 35.5931 7.19173 35.9609 7.03223C36.332 6.87272 36.7406 6.79297 37.1865 6.79297C37.6357 6.79297 38.0443 6.87272 38.4121 7.03223C38.7832 7.19173 39.1022 7.42285 39.3691 7.72559C39.6393 8.02832 39.8477 8.39453 39.9941 8.82422C40.1439 9.25065 40.2188 9.73568 40.2188 10.2793ZM38.7393 10.6162V10.2695C38.7393 9.89193 38.7051 9.5599 38.6367 9.27344C38.5684 8.98698 38.4674 8.74609 38.334 8.55078C38.2005 8.35547 38.0378 8.20898 37.8457 8.11133C37.6536 8.01042 37.4339 7.95996 37.1865 7.95996C36.9391 7.95996 36.7194 8.01042 36.5273 8.11133C36.3385 8.20898 36.1774 8.35547 36.0439 8.55078C35.9137 8.74609 35.8145 8.98698 35.7461 9.27344C35.6777 9.5599 35.6436 9.89193 35.6436 10.2695V10.6162C35.6436 10.9906 35.6777 11.3226 35.7461 11.6123C35.8145 11.8988 35.9154 12.1413 36.0488 12.3398C36.1823 12.5352 36.3451 12.6833 36.5371 12.7842C36.7292 12.8851 36.9489 12.9355 37.1963 12.9355C37.4437 12.9355 37.6634 12.8851 37.8555 12.7842C38.0475 12.6833 38.2087 12.5352 38.3389 12.3398C38.4691 12.1413 38.5684 11.8988 38.6367 11.6123C38.7051 11.3226 38.7393 10.9906 38.7393 10.6162ZM36.5176 6.48535L37.4746 4.98145H39.0029L37.6602 6.48535H36.5176ZM45.8438 12.8574V14H42.2646V12.8574H45.8438ZM42.7383 6.89062V14H41.2734V6.89062H42.7383ZM48.2412 6.89062V14H46.7812V6.89062H48.2412ZM53.7344 11.6416H55.1943C55.165 12.1201 55.0332 12.5449 54.7988 12.916C54.5677 13.2871 54.2438 13.5768 53.8271 13.7852C53.4137 13.9935 52.9157 14.0977 52.333 14.0977C51.8773 14.0977 51.4688 14.0195 51.1074 13.8633C50.7461 13.7038 50.4368 13.4759 50.1797 13.1797C49.9258 12.8835 49.7321 12.5254 49.5986 12.1055C49.4652 11.6855 49.3984 11.2152 49.3984 10.6943V10.2012C49.3984 9.68034 49.4668 9.20996 49.6035 8.79004C49.7435 8.36686 49.9421 8.00716 50.1992 7.71094C50.4596 7.41471 50.7705 7.18685 51.1318 7.02734C51.4932 6.86784 51.8968 6.78809 52.3428 6.78809C52.9352 6.78809 53.4349 6.89551 53.8418 7.11035C54.252 7.3252 54.5693 7.62142 54.7939 7.99902C55.0218 8.37663 55.1585 8.80632 55.2041 9.28809H53.7393C53.723 9.00163 53.666 8.75911 53.5684 8.56055C53.4707 8.35872 53.3226 8.20736 53.124 8.10645C52.9287 8.00228 52.6683 7.9502 52.3428 7.9502C52.0986 7.9502 51.8854 7.99577 51.7031 8.08691C51.5208 8.17806 51.3678 8.31641 51.2441 8.50195C51.1204 8.6875 51.0277 8.92188 50.9658 9.20508C50.9072 9.48503 50.8779 9.8138 50.8779 10.1914V10.6943C50.8779 11.0622 50.9056 11.3861 50.9609 11.666C51.0163 11.9427 51.1009 12.1771 51.2148 12.3691C51.332 12.5579 51.4818 12.7012 51.6641 12.7988C51.8496 12.8932 52.0726 12.9404 52.333 12.9404C52.639 12.9404 52.8913 12.8916 53.0898 12.7939C53.2884 12.6963 53.4398 12.5514 53.5439 12.3594C53.6514 12.1673 53.7148 11.9281 53.7344 11.6416ZM61.9961 10.2793V10.6162C61.9961 11.1566 61.9229 11.6416 61.7764 12.0713C61.6299 12.501 61.4232 12.8672 61.1562 13.1699C60.8893 13.4694 60.5703 13.6989 60.1992 13.8584C59.8314 14.0179 59.4229 14.0977 58.9736 14.0977C58.5277 14.0977 58.1191 14.0179 57.748 13.8584C57.3802 13.6989 57.0612 13.4694 56.791 13.1699C56.5208 12.8672 56.3109 12.501 56.1611 12.0713C56.0146 11.6416 55.9414 11.1566 55.9414 10.6162V10.2793C55.9414 9.73568 56.0146 9.25065 56.1611 8.82422C56.3076 8.39453 56.5143 8.02832 56.7812 7.72559C57.0514 7.42285 57.3704 7.19173 57.7383 7.03223C58.1094 6.87272 58.5179 6.79297 58.9639 6.79297C59.4131 6.79297 59.8216 6.87272 60.1895 7.03223C60.5605 7.19173 60.8796 7.42285 61.1465 7.72559C61.4167 8.02832 61.625 8.39453 61.7715 8.82422C61.9212 9.25065 61.9961 9.73568 61.9961 10.2793ZM60.5166 10.6162V10.2695C60.5166 9.89193 60.4824 9.5599 60.4141 9.27344C60.3457 8.98698 60.2448 8.74609 60.1113 8.55078C59.9779 8.35547 59.8151 8.20898 59.623 8.11133C59.431 8.01042 59.2113 7.95996 58.9639 7.95996C58.7165 7.95996 58.4967 8.01042 58.3047 8.11133C58.1159 8.20898 57.9548 8.35547 57.8213 8.55078C57.6911 8.74609 57.5918 8.98698 57.5234 9.27344C57.4551 9.5599 57.4209 9.89193 57.4209 10.2695V10.6162C57.4209 10.9906 57.4551 11.3226 57.5234 11.6123C57.5918 11.8988 57.6927 12.1413 57.8262 12.3398C57.9596 12.5352 58.1224 12.6833 58.3145 12.7842C58.5065 12.8851 58.7262 12.9355 58.9736 12.9355C59.221 12.9355 59.4408 12.8851 59.6328 12.7842C59.8249 12.6833 59.986 12.5352 60.1162 12.3398C60.2464 12.1413 60.3457 11.8988 60.4141 11.6123C60.4824 11.3226 60.5166 10.9906 60.5166 10.6162Z" fill="#C47F17"/>
</svg>
