<svg width="63" height="21" viewBox="0 0 63 21" fill="none" xmlns="http://www.w3.org/2000/svg">
<rect x="0.5" width="62" height="21" rx="10.5" fill="#F1E9C9"/>
<path d="M13.9053 12.8574V14H10.1211V12.8574H13.9053ZM10.5996 6.89062V14H9.13477V6.89062H10.5996ZM13.4121 9.78613V10.8994H10.1211V9.78613H13.4121ZM13.9004 6.89062V8.03809H10.1211V6.89062H13.9004ZM18.4609 12.1396C18.4609 12.0127 18.4414 11.8988 18.4023 11.7979C18.3665 11.6937 18.2982 11.5993 18.1973 11.5146C18.0964 11.4268 17.9548 11.3405 17.7725 11.2559C17.5902 11.1712 17.3542 11.0833 17.0645 10.9922C16.7422 10.888 16.4362 10.7708 16.1465 10.6406C15.86 10.5104 15.6061 10.359 15.3848 10.1865C15.1667 10.0107 14.9941 9.80729 14.8672 9.57617C14.7435 9.34505 14.6816 9.0765 14.6816 8.77051C14.6816 8.47428 14.7467 8.20573 14.877 7.96484C15.0072 7.7207 15.1895 7.51237 15.4238 7.33984C15.6582 7.16406 15.9349 7.02897 16.2539 6.93457C16.5762 6.84017 16.9294 6.79297 17.3135 6.79297C17.8376 6.79297 18.2949 6.88737 18.6855 7.07617C19.0762 7.26497 19.3789 7.52376 19.5938 7.85254C19.8118 8.18132 19.9209 8.55729 19.9209 8.98047H18.4658C18.4658 8.77214 18.4219 8.58984 18.334 8.43359C18.2493 8.27409 18.1191 8.14876 17.9434 8.05762C17.7708 7.96647 17.5527 7.9209 17.2891 7.9209C17.0352 7.9209 16.8236 7.95996 16.6543 8.03809C16.485 8.11296 16.3581 8.21549 16.2734 8.3457C16.1888 8.47266 16.1465 8.61589 16.1465 8.77539C16.1465 8.89583 16.1758 9.00488 16.2344 9.10254C16.2962 9.2002 16.3874 9.29134 16.5078 9.37598C16.6283 9.46061 16.7764 9.54036 16.9521 9.61523C17.1279 9.6901 17.3314 9.76335 17.5625 9.83496C17.9499 9.95215 18.29 10.084 18.583 10.2305C18.8792 10.377 19.1266 10.5413 19.3252 10.7236C19.5238 10.9059 19.6735 11.1126 19.7744 11.3438C19.8753 11.5749 19.9258 11.8369 19.9258 12.1299C19.9258 12.4391 19.8656 12.7158 19.7451 12.96C19.6247 13.2041 19.4505 13.4108 19.2227 13.5801C18.9948 13.7493 18.723 13.8779 18.4072 13.9658C18.0915 14.0537 17.7383 14.0977 17.3477 14.0977C16.9961 14.0977 16.6494 14.0521 16.3076 13.9609C15.9658 13.8665 15.6549 13.7249 15.375 13.5361C15.0983 13.3473 14.877 13.1064 14.7109 12.8135C14.5449 12.5205 14.4619 12.1738 14.4619 11.7734H15.9316C15.9316 11.9948 15.9658 12.182 16.0342 12.335C16.1025 12.488 16.1986 12.6117 16.3223 12.7061C16.4492 12.8005 16.599 12.8688 16.7715 12.9111C16.9473 12.9535 17.1393 12.9746 17.3477 12.9746C17.6016 12.9746 17.8099 12.9388 17.9727 12.8672C18.1387 12.7956 18.2607 12.6963 18.3389 12.5693C18.4202 12.4424 18.4609 12.2992 18.4609 12.1396ZM23.6904 11.4658H21.8789V10.3232H23.6904C23.9704 10.3232 24.1982 10.2777 24.374 10.1865C24.5498 10.0921 24.6784 9.96191 24.7598 9.7959C24.8411 9.62988 24.8818 9.44271 24.8818 9.23438C24.8818 9.02279 24.8411 8.82585 24.7598 8.64355C24.6784 8.46126 24.5498 8.31478 24.374 8.2041C24.1982 8.09342 23.9704 8.03809 23.6904 8.03809H22.3867V14H20.9219V6.89062H23.6904C24.2471 6.89062 24.724 6.99154 25.1211 7.19336C25.5215 7.39193 25.8275 7.66699 26.0391 8.01855C26.2507 8.37012 26.3564 8.77214 26.3564 9.22461C26.3564 9.68359 26.2507 10.0807 26.0391 10.416C25.8275 10.7513 25.5215 11.0101 25.1211 11.1924C24.724 11.3747 24.2471 11.4658 23.6904 11.4658ZM32.1377 12.8574V14H28.3535V12.8574H32.1377ZM28.832 6.89062V14H27.3672V6.89062H28.832ZM31.6445 9.78613V10.8994H28.3535V9.78613H31.6445ZM32.1328 6.89062V8.03809H28.3535V6.89062H32.1328ZM37.1133 11.6416H38.5732C38.5439 12.1201 38.4121 12.5449 38.1777 12.916C37.9466 13.2871 37.6227 13.5768 37.2061 13.7852C36.7926 13.9935 36.2946 14.0977 35.7119 14.0977C35.2562 14.0977 34.8477 14.0195 34.4863 13.8633C34.125 13.7038 33.8158 13.4759 33.5586 13.1797C33.3047 12.8835 33.111 12.5254 32.9775 12.1055C32.8441 11.6855 32.7773 11.2152 32.7773 10.6943V10.2012C32.7773 9.68034 32.8457 9.20996 32.9824 8.79004C33.1224 8.36686 33.321 8.00716 33.5781 7.71094C33.8385 7.41471 34.1494 7.18685 34.5107 7.02734C34.8721 6.86784 35.2757 6.78809 35.7217 6.78809C36.3141 6.78809 36.8138 6.89551 37.2207 7.11035C37.6309 7.3252 37.9482 7.62142 38.1729 7.99902C38.4007 8.37663 38.5374 8.80632 38.583 9.28809H37.1182C37.1019 9.00163 37.0449 8.75911 36.9473 8.56055C36.8496 8.35872 36.7015 8.20736 36.5029 8.10645C36.3076 8.00228 36.0472 7.9502 35.7217 7.9502C35.4775 7.9502 35.2643 7.99577 35.082 8.08691C34.8997 8.17806 34.7467 8.31641 34.623 8.50195C34.4993 8.6875 34.4066 8.92188 34.3447 9.20508C34.2861 9.48503 34.2568 9.8138 34.2568 10.1914V10.6943C34.2568 11.0622 34.2845 11.3861 34.3398 11.666C34.3952 11.9427 34.4798 12.1771 34.5938 12.3691C34.7109 12.5579 34.8607 12.7012 35.043 12.7988C35.2285 12.8932 35.4515 12.9404 35.7119 12.9404C36.0179 12.9404 36.2702 12.8916 36.4688 12.7939C36.6673 12.6963 36.8187 12.5514 36.9229 12.3594C37.0303 12.1673 37.0938 11.9281 37.1133 11.6416ZM41.0928 6.89062V14H39.6328V6.89062H41.0928ZM45.4434 8.10645L43.5098 14H41.9521L44.5938 6.89062H45.585L45.4434 8.10645ZM47.0498 14L45.1113 8.10645L44.9551 6.89062H45.9561L48.6123 14H47.0498ZM46.9619 11.3535V12.501H43.207V11.3535H46.9619ZM53.8418 12.8574V14H50.2627V12.8574H53.8418ZM50.7363 6.89062V14H49.2715V6.89062H50.7363Z" fill="#C47F17"/>
</svg>
