<svg width="55" height="21" viewBox="0 0 55 21" fill="none" xmlns="http://www.w3.org/2000/svg">
<rect width="55" height="21" rx="10.5" fill="#F1E9C9"/>
<path d="M14.2695 10.2842V13.1016C14.1589 13.235 13.988 13.3799 13.7568 13.5361C13.5257 13.6891 13.2279 13.821 12.8633 13.9316C12.4987 14.0423 12.0576 14.0977 11.54 14.0977C11.0811 14.0977 10.6628 14.0228 10.2852 13.873C9.90755 13.7201 9.58203 13.4971 9.30859 13.2041C9.03841 12.9111 8.83008 12.5531 8.68359 12.1299C8.53711 11.7035 8.46387 11.2168 8.46387 10.6699V10.2256C8.46387 9.67871 8.53385 9.19206 8.67383 8.76562C8.81706 8.33919 9.02051 7.97949 9.28418 7.68652C9.54785 7.39355 9.86198 7.17057 10.2266 7.01758C10.5911 6.86458 10.9964 6.78809 11.4424 6.78809C12.0609 6.78809 12.5687 6.889 12.9658 7.09082C13.363 7.28939 13.6657 7.56608 13.874 7.9209C14.0856 8.27246 14.2158 8.67611 14.2646 9.13184H12.8438C12.8079 8.89095 12.7396 8.68099 12.6387 8.50195C12.5378 8.32292 12.3929 8.18294 12.2041 8.08203C12.0186 7.98112 11.7777 7.93066 11.4814 7.93066C11.2373 7.93066 11.0192 7.98112 10.8271 8.08203C10.6383 8.17969 10.4788 8.32454 10.3486 8.5166C10.2184 8.70866 10.1191 8.94629 10.0508 9.22949C9.98242 9.5127 9.94824 9.84147 9.94824 10.2158V10.6699C9.94824 11.041 9.98405 11.3698 10.0557 11.6562C10.1273 11.9395 10.2331 12.1787 10.373 12.374C10.5163 12.5661 10.6921 12.7109 10.9004 12.8086C11.1087 12.9062 11.3512 12.9551 11.6279 12.9551C11.859 12.9551 12.0511 12.9355 12.2041 12.8965C12.3604 12.8574 12.4857 12.8102 12.5801 12.7549C12.6777 12.6963 12.7526 12.641 12.8047 12.5889V11.3291H11.4668V10.2842H14.2695ZM20.2217 12.8574V14H16.4375V12.8574H20.2217ZM16.916 6.89062V14H15.4512V6.89062H16.916ZM19.7285 9.78613V10.8994H16.4375V9.78613H19.7285ZM20.2168 6.89062V8.03809H16.4375V6.89062H20.2168ZM25.6465 12.8574V14H22.0674V12.8574H25.6465ZM22.541 6.89062V14H21.0762V6.89062H22.541ZM29.4746 8.10645L27.541 14H25.9834L28.625 6.89062H29.6162L29.4746 8.10645ZM31.0811 14L29.1426 8.10645L28.9863 6.89062H29.9873L32.6436 14H31.0811ZM30.9932 11.3535V12.501H27.2383V11.3535H30.9932ZM35.4854 14H33.9375L33.9473 12.8574H35.4854C35.8695 12.8574 36.1934 12.7712 36.457 12.5986C36.7207 12.4229 36.9193 12.1673 37.0527 11.832C37.1895 11.4967 37.2578 11.0915 37.2578 10.6162V10.2695C37.2578 9.90495 37.2188 9.58431 37.1406 9.30762C37.0658 9.03092 36.9535 8.79818 36.8037 8.60938C36.654 8.42057 36.4701 8.27897 36.252 8.18457C36.0339 8.08691 35.7832 8.03809 35.5 8.03809H33.9082V6.89062H35.5C35.9753 6.89062 36.4098 6.97201 36.8037 7.13477C37.2008 7.29427 37.5443 7.52376 37.834 7.82324C38.1237 8.12272 38.3467 8.48079 38.5029 8.89746C38.6624 9.31087 38.7422 9.77148 38.7422 10.2793V10.6162C38.7422 11.1208 38.6624 11.5814 38.5029 11.998C38.3467 12.4147 38.1237 12.7728 37.834 13.0723C37.5475 13.3685 37.2041 13.598 36.8037 13.7607C36.4066 13.9202 35.9671 14 35.4854 14ZM34.7676 6.89062V14H33.3027V6.89062H34.7676ZM45.6465 10.2793V10.6162C45.6465 11.1566 45.5732 11.6416 45.4268 12.0713C45.2803 12.501 45.0736 12.8672 44.8066 13.1699C44.5397 13.4694 44.2207 13.6989 43.8496 13.8584C43.4818 14.0179 43.0732 14.0977 42.624 14.0977C42.1781 14.0977 41.7695 14.0179 41.3984 13.8584C41.0306 13.6989 40.7116 13.4694 40.4414 13.1699C40.1712 12.8672 39.9613 12.501 39.8115 12.0713C39.665 11.6416 39.5918 11.1566 39.5918 10.6162V10.2793C39.5918 9.73568 39.665 9.25065 39.8115 8.82422C39.958 8.39453 40.1647 8.02832 40.4316 7.72559C40.7018 7.42285 41.0208 7.19173 41.3887 7.03223C41.7598 6.87272 42.1683 6.79297 42.6143 6.79297C43.0635 6.79297 43.472 6.87272 43.8398 7.03223C44.2109 7.19173 44.5299 7.42285 44.7969 7.72559C45.0671 8.02832 45.2754 8.39453 45.4219 8.82422C45.5716 9.25065 45.6465 9.73568 45.6465 10.2793ZM44.167 10.6162V10.2695C44.167 9.89193 44.1328 9.5599 44.0645 9.27344C43.9961 8.98698 43.8952 8.74609 43.7617 8.55078C43.6283 8.35547 43.4655 8.20898 43.2734 8.11133C43.0814 8.01042 42.8617 7.95996 42.6143 7.95996C42.3669 7.95996 42.1471 8.01042 41.9551 8.11133C41.7663 8.20898 41.6051 8.35547 41.4717 8.55078C41.3415 8.74609 41.2422 8.98698 41.1738 9.27344C41.1055 9.5599 41.0713 9.89193 41.0713 10.2695V10.6162C41.0713 10.9906 41.1055 11.3226 41.1738 11.6123C41.2422 11.8988 41.3431 12.1413 41.4766 12.3398C41.61 12.5352 41.7728 12.6833 41.9648 12.7842C42.1569 12.8851 42.3766 12.9355 42.624 12.9355C42.8714 12.9355 43.0911 12.8851 43.2832 12.7842C43.4753 12.6833 43.6364 12.5352 43.7666 12.3398C43.8968 12.1413 43.9961 11.8988 44.0645 11.6123C44.1328 11.3226 44.167 10.9906 44.167 10.6162Z" fill="#C47F17"/>
</svg>
